<?xml version="1.0" encoding="utf-8"?>
<!-- Svg Vector Icons : http://www.onlinewebfonts.com/icon -->
<!DOCTYPE svg PUBLIC "-//W3C//DTD SVG 1.1//EN" "http://www.w3.org/Graphics/SVG/1.1/DTD/svg11.dtd">
<svg version="1.1" xmlns="http://www.w3.org/2000/svg" xmlns:xlink="http://www.w3.org/1999/xlink" x="0px" y="0px" viewBox="0 0 1000 1000" enable-background="new 0 0 1000 1000" xml:space="preserve">
<metadata> Svg Vector Icons : http://www.onlinewebfonts.com/icon </metadata>
<g><path d="M445.5,989.5c-28.9,0-56.1-11.3-76.5-31.7l-327.3-327C21.3,610.4,10,583.2,10,554.3c0-28.9,11.3-56,31.7-76.4c3.7-3.7,373.6-373.3,417.2-416.9c44.5-44.4,92.1-50.5,136.9-50.5c34.8,0,285.9-0.1,285.9-0.1c28.9,0,56.1,11.2,76.5,31.7c20.5,20.4,31.7,47.6,31.7,76.5c0,0-0.1,237.3-0.1,278.7c0,46.1-6.1,99.2-50.6,143.7C917,563.4,526.1,953.9,522.1,957.8C501.7,978.3,474.5,989.5,445.5,989.5z M881.8,63.6c0,0-251.1,0.1-285.9,0.1c-40.7,0-70,5.7-99.4,35C452.9,142.2,83,511.8,79.3,515.5c-10.4,10.4-16.1,24.2-16.1,38.8c0,14.7,5.7,28.5,16.1,38.9l327.3,327c10.4,10.4,24.3,16.2,39,16.2c14.7,0,28.6-5.7,39-16.2c3.9-3.9,394.9-394.5,417.3-416.8c29-29,34.9-63.4,35-106.2c0-41.4,0.1-278.7,0.1-278.7c0-14.7-5.7-28.5-16.1-38.9C910.3,69.3,896.5,63.6,881.8,63.6z M716,417.5c-31.8,0-61.6-12.4-84.1-34.8c-22.5-22.5-34.8-52.3-34.8-84.1c0-31.8,12.4-61.6,34.9-84.1c22.4-22.4,52.3-34.8,84.1-34.8c31.8,0,61.7,12.4,84.1,34.8c46.4,46.3,46.4,121.8,0,168.2C777.7,405.1,747.8,417.5,716,417.5z M716.1,232.8c-17.6,0-34.1,6.8-46.6,19.3c-12.5,12.5-19.3,29-19.3,46.6c0,17.6,6.8,34.1,19.3,46.5c12.4,12.4,29,19.3,46.6,19.3c17.6,0,34.2-6.8,46.6-19.3c25.6-25.7,25.7-67.4,0-93C750.2,239.6,733.7,232.8,716.1,232.8z"/></g>
</svg>