<?xml version="1.0" encoding="utf-8"?>
<!-- Svg Vector Icons : http://www.onlinewebfonts.com/icon -->
<!DOCTYPE svg PUBLIC "-//W3C//DTD SVG 1.1//EN" "http://www.w3.org/Graphics/SVG/1.1/DTD/svg11.dtd">
<svg version="1.1" xmlns="http://www.w3.org/2000/svg" xmlns:xlink="http://www.w3.org/1999/xlink" x="0px" y="0px" viewBox="0 0 1000 1000" enable-background="new 0 0 1000 1000" xml:space="preserve">
<metadata> Svg Vector Icons : http://www.onlinewebfonts.com/icon </metadata>
<g><g transform="translate(0.000000,511.000000) scale(0.100000,-0.100000)"><path d="M4480.2,4984.9c-1418.8-149.3-2748-953.3-3549.5-2150.6C-59.9,1353.3-172-518.5,634.5-2106.6c485.4-953.3,1209.7-1675.2,2163.1-2153.1c826.4-413.2,1695.1-587.4,2568.8-515.3c687,57.2,1224.6,209.1,1836.9,515.3c960.8,480.4,1685.2,1204.7,2165.5,2165.5c306.2,612.3,458,1150,515.3,1837c72.1,873.7-102.1,1742.4-515.3,2568.8c-477.9,953.3-1199.7,1677.7-2153.1,2163C6364.5,4905.3,5421.1,5082,4480.2,4984.9z M5411.1,4763.4c599.9-54.8,1117.6-199.1,1642.8-458c527.7-261.4,911-540.1,1321.7-965.8c1642.8-1702.6,1732.5-4385.8,204.1-6205.4C7830.6-3756.9,6817.5-4317,5647.6-4486.2c-418.1-59.8-1145-37.3-1555.7,49.8C2314.7-4063.1,940.7-2743.8,495.1-989C323.4-304.5,328.3,559.2,507.6,1278.6C1052.7,3464.1,3173.4,4970,5411.1,4763.4z"/><path d="M5348.9,3344.6c-485.4-62.2-973.2-243.9-1374-515.3c-136.9-94.6-261.4-176.7-278.8-186.7c-14.9-7.5-122-37.3-239-64.7C2137.9,2271.8,1231.9,1106.9,1368.8-107.8c54.8-500.3,261.4-958.3,599.9-1339.2l112-124.5l29.9-667.1c14.9-365.9,34.8-682,44.8-701.9c19.9-57.2,154.3-117,219-102c29.9,7.5,224,186.7,430.6,400.7l373.4,383.3l236.5-59.7c940.9-238.9,1909.2-54.8,2646,500.3c159.3,119.5,239,161.8,370.9,194.1c92.1,22.4,236.5,69.7,318.6,102.1c82.1,34.9,159.3,62.2,171.8,62.2c12.4,0,201.6-151.8,420.6-336c219.1-184.2,423.2-341,455.5-351c72.2-17.4,151.8,22.4,199.1,97.1c32.4,47.3,32.4,141.9-2.5,729.3l-37.3,674.5l97.1,126.9c134.4,179.2,293.7,505.3,370.8,766.7c92.1,316.1,109.5,754.2,39.9,1082.8c-204.1,988.2-1052.9,1764.8-2155.6,1976.4C6055.8,3357,5592.9,3374.5,5348.9,3344.6z M6406.8,2886.6c818.9-211.6,1468.6-818.9,1657.7-1550.7c64.8-258.9,64.8-654.6-2.5-918.5c-59.7-236.5-206.6-550.1-336-716.8c-176.7-234-179.2-248.9-122-1020.5l15-196.7l-256.4,216.6c-268.8,224-341,256.4-520.2,231.5l-97.1-12.5l82.2,166.8c248.9,492.8,313.6,1087.7,176.7,1620.4c-54.7,211.6-231.5,587.4-370.9,784.1C6200.2,2095,5403.7,2563,4669.4,2640.2c-79.7,7.5-149.3,22.4-154.3,32.4c-14.9,22.4,224,126.9,423.2,186.7C5386.2,2988.6,5961.3,3001.1,6406.8,2886.6z M4791.4,2124.9c756.7-134.4,1381.5-580,1692.6-1207.2c154.3-313.6,194.2-487.9,194.2-833.9c-2.5-313.6-39.8-502.8-159.3-761.7c-480.4-1060.4-1884.3-1615.4-3113.9-1229.6c-301.2,94.6-378.3,64.7-674.6-241.4l-216.5-226.5l-12.4,179.2c-7.5,97.1-19.9,303.7-27.4,460.5c-7.5,154.3-27.4,306.2-42.3,333.5c-14.9,29.9-97.1,131.9-181.7,229c-388.3,448-555.1,935.9-490.4,1453.6c119.5,973.3,965.8,1725,2103.3,1869.3C4069.5,2174.7,4577.3,2162.2,4791.4,2124.9z"/><path d="M2720.4,372.6c-112-49.8-159.3-129.4-159.3-271.3c0-99.6,12.4-134.4,69.7-191.7c92.1-92.1,221.5-117,333.6-64.7c221.5,104.5,224,420.6,5,525.2C2872.2,414.9,2822.5,414.9,2720.4,372.6z"/><path d="M3987.4,370.1c-139.4-59.7-199.1-258.9-119.5-408.2c34.8-69.7,169.3-151.9,246.4-151.9c87.1,0,211.6,74.7,248.9,146.9c82.1,156.8,24.9,353.5-122,415.7C4136.7,414.9,4089.4,414.9,3987.4,370.1z"/><path d="M5284.2,382.5c-97.1-37.3-184.2-169.3-184.2-276.3c0-77.2,17.5-117,84.6-191.7c74.7-79.7,99.6-92.1,196.7-92.1c141.9,0,241.4,69.7,283.8,194.1C5742.2,250.6,5508.2,474.6,5284.2,382.5z"/></g></g>
</svg>