<?xml version="1.0" encoding="utf-8"?>
<!-- Svg Vector Icons : http://www.onlinewebfonts.com/icon -->
<!DOCTYPE svg PUBLIC "-//W3C//DTD SVG 1.1//EN" "http://www.w3.org/Graphics/SVG/1.1/DTD/svg11.dtd">
<svg version="1.1" xmlns="http://www.w3.org/2000/svg" xmlns:xlink="http://www.w3.org/1999/xlink" x="0px" y="0px" viewBox="0 0 1000 1000" enable-background="new 0 0 1000 1000" xml:space="preserve">
<metadata> Svg Vector Icons : http://www.onlinewebfonts.com/icon </metadata>
<g><path d="M500,71.4c236.3,0,428.6,192.3,428.6,428.6c0,236.3-192.3,428.6-428.6,428.6C263.7,928.6,71.4,736.3,71.4,500C71.4,263.7,263.7,71.4,500,71.4 M500,10C229.4,10,10,229.4,10,500c0,270.6,219.3,490,490,490c270.6,0,490-219.4,490-490C990,229.4,770.6,10,500,10L500,10z"/><path d="M561.6,294.1v5.8c0,33.9,27.5,61.4,61.4,61.4h49.2v344.5H327.7V361.3h49.9c33.9,0,61.4-27.5,61.4-61.4v-5.8H561.6 M583.4,232.7H417.3c-21.9,0-39.7,17.7-39.7,39.7v27.5h-66.8c-24.6,0-44.5,19.9-44.5,44.5v378.3c0,24.6,19.9,44.5,44.5,44.5h378.3c24.6,0,44.5-19.9,44.5-44.5V344.5c0-24.6-19.9-44.5-44.5-44.5H623v-27.5C623,250.5,605.3,232.7,583.4,232.7L583.4,232.7z"/><path d="M622.4,508.4H377.6c-12.3,0-22.3,9.9-22.3,22.3s9.9,22.3,22.3,22.3h244.8c12.3,0,22.3-10,22.3-22.3S634.7,508.4,622.4,508.4z M511.1,597.4H377.6c-12.3,0-22.3,10-22.3,22.3c0,12.3,9.9,22.3,22.3,22.3h133.5c12.3,0,22.3-9.9,22.3-22.3C533.4,607.4,523.4,597.4,511.1,597.4z M377.6,463.9h244.8c12.3,0,22.3-9.9,22.3-22.3c0-12.3-9.9-22.3-22.3-22.3H377.6c-12.3,0-22.3,9.9-22.3,22.3C355.4,454,365.3,463.9,377.6,463.9z"/></g>
</svg>